<svg height="16" viewBox="0 0 16 16" width="16" xmlns="http://www.w3.org/2000/svg"><path d="m11.166547 2.5694282a5.2085194 5.2085194 0 0 0 -5.508731.0053195 5.2085194 5.2085194 0 0 0 -1.6591896 7.1766489 5.2085194 5.2085194 0 0 0 .6338678.8203094l1.5184041-1.9482504c.2274006-.2917935.6454289-.3437177.937222-.1163168.2917926.2274017.3435954.6453312.116195.9371228l-1.5368181 1.9722004a5.2085194 5.2085194 0 0 0 5.5077768-.0058 5.2085194 5.2085194 0 0 0 1.65919-7.1766478 5.2085194 5.2085194 0 0 0 -.633476-.8197956l-1.557063 1.9408801c-.231491.2885117-.6501125.3345591-.9386709.1030685-.2885586-.231491-.3345089-.6502333-.1030173-.9387919z" fill="#646464" stroke-width=".080132"/><path d="m8.3727293 1.8786058a5.2085194 5.2085194 0 0 0 -2.7222656.7905118 5.2085194 5.2085194 0 0 0 -.4497975.3150467 8.0131073 1.8029491 37.191992 0 1 4.3626042 2.7797021 8.0131073 1.8029491 37.191992 0 1 3.6788286 3.2650289 5.2085194 5.2085194 0 0 0 -.414896-4.7006577 5.2085194 5.2085194 0 0 0 -.633536-.8197784l-1.557079 1.9409875c-.23149.2885594-.6501624.3344717-.9387223.102981-.2885586-.2314904-.334472-.6501635-.1029821-.9387227l1.5642764-1.9499082a5.2085194 5.2085194 0 0 0 -2.7864307-.785191zm4.8693697 7.1502895a5.2085194 5.2085194 0 0 1 -.17779.3943945 7.0687052 1.3958547 37.191992 0 1 .992874 1.9700982 7.0687052 1.3958547 37.191992 0 1 -2.170737-.428671 5.2085194 5.2085194 0 0 1 -.395961.321464 8.0131073 1.8029491 37.191992 0 0 3.366131.757958 8.0131073 1.8029491 37.191992 0 0 -1.614517-3.0152437zm-1.751614 2.2572857a8.0131073 1.8029491 37.191992 0 1 -4.1070301-2.6496465 8.0131073 1.8029491 37.191992 0 1 -3.8309534-3.4307678 5.2085194 5.2085194 0 0 0 .4388421 4.6399332 5.2085194 5.2085194 0 0 0 .6338491.8202491l1.5184218-1.9481876c.227401-.2917923.6453654-.3436845.9371578-.1162841.2917936.2274009.343685.6453655.1162841.9371585l-1.5368896 1.9721302a5.2085194 5.2085194 0 0 0 5.5077592-.0058 5.2085194 5.2085194 0 0 0 .322559-.218795zm-7.9379835-6.0804143a5.2085194 5.2085194 0 0 1 .1926584-.437278 7.0687052 1.3958547 37.191992 0 1 -.9501475-1.9211105 7.0687052 1.3958547 37.191992 0 1 .4638838-.1402297 7.0687052 1.3958547 37.191992 0 1 1.6362698.5354073 5.2085194 5.2085194 0 0 1 .3055002-.2583915 8.0131073 1.8029491 37.191992 0 0 -2.4256874-.8326122 8.0131073 1.8029491 37.191992 0 0 -.6850258.2048666 8.0131073 1.8029491 37.191992 0 0 1.4625485 2.849348zm1.3426645-1.9632109a5.2085194 5.2085194 0 0 0 -1.1500061 1.5259329 7.0687052 1.3958547 37.191992 0 0 3.8370581 3.4639473 7.0687052 1.3958547 37.191992 0 0 4.304228 2.732281 5.2085194 5.2085194 0 0 0 1.177863-1.5414272 7.0687052 1.3958547 37.191992 0 0 -3.7943307-3.4149599 7.0687052 1.3958547 37.191992 0 0 -4.3748123-2.7657741z" fill="#646464" stroke-width=".080132"/><g fill="#9d9d9d"><g stroke-width=".028618"><path d="m14.000001 12.217351c-.224598-.03538-.597034-.13275-.868653-.227113-.702352-.244005-1.756256-.745562-1.566625-.745562.01208 0 .08883-.0585.170579-.130013l.148623-.130012.351704.155246c1.100738.485877 1.81746.533697 1.889573.126079.05354-.302693-.229781-.855589-.797322-1.5559088l-.238353-.2941174.07901-.176946.07901-.1769463.214723.2399166c1.033141 1.1543499 1.558514 2.0784709 1.452014 2.5540579-.03045.135933-.139741.265376-.271802.321895-.120332.051505-.440909.071173-.642482.039426z"/><path d="m3.3445352 4.9435462c-.8210162-.9402741-1.3316411-1.8095611-1.3316411-2.2669831 0-.1749351.1040014-.359033.2432549-.4306055.1414034-.072676.5005225-.093888.7798525-.046064.4540473.077739 1.128823.3140518 1.8056614.6323609l.3246711.1526901-.1364262.1183534-.1364262.1183538-.2772252-.122007c-.8392684-.3693609-1.4785888-.4929875-1.7426793-.3369852-.3383707.1998803-.077284.8906249.6825239 1.8056989l.1713519.2063686-.091912.1984223-.091912.1984217z"/><path d="m10.999021 10.999155c-1.8697149-1.034194-3.9634248-2.5472766-5.7951933-4.1880702-.5045257-.451924-1.6168936-1.5610442-1.6170128-1.6122888-.0000452-.0195206.0338545-.1154478.0753316-.2131666l.07542-.1776708.5560169.5698557c1.9374149 1.9856315 4.705102 4.0754325 7.0676616 5.3365897l.491003.262101-.165648.134086c-.0911.07374-.183274.134048-.204819.134005-.02155-.000057-.238783-.110492-.482755-.245441z"/></g><path d="m1.7247999 2.82592a7.0114687 7.0114687 0 0 0 -1.4001024 4.2039069 7.0114687 7.0114687 0 0 0 5.7110603 6.8898641v-.851081a6.7281627 6.8293434 0 0 1 -5.30242472-6.6741962 6.7281627 6.8293434 0 0 1 .99146682-3.5684938z" stroke-width=".080132"/></g><circle cx="6.292634" cy="13.635356" fill="#646464" r="1.001638" stroke-width=".080132"/></svg>