<svg height="768" viewBox="0 0 1366 768" width="1366" xmlns="http://www.w3.org/2000/svg"><path d="m385.75913 164.76133a178.28614 178.28614 0 0 0 -188.56228.18192 178.28614 178.28614 0 0 0 -56.79359 245.65465 178.28614 178.28614 0 0 0 21.69713 28.07891l51.97452-66.68794c7.78387-9.98802 22.09286-11.76536 32.08084-3.98148 9.988 7.78388 11.76118 22.08949 3.97733 32.07743l-52.60484 67.50785a178.28614 178.28614 0 0 0 188.52963-.20136 178.28614 178.28614 0 0 0 56.79361-245.65461 178.28614 178.28614 0 0 0 -21.68374-28.06138l-53.29781 66.43691c-7.92388 9.87729-22.25316 11.45348-32.13043 3.52962-9.87728-7.92387-11.45014-22.2573-3.52625-32.13458z" fill="#646464" stroke-width="2.74287"/><path d="m290.12756 141.11466a178.28614 178.28614 0 0 0 -93.18237 27.05898 178.28614 178.28614 0 0 0 -15.39644 10.78397 274.28636 61.714429 37.191992 0 1 149.33068 95.14841 274.28636 61.714429 37.191992 0 1 125.92528 111.761 178.28614 178.28614 0 0 0 -14.20183-160.90216 178.28614 178.28614 0 0 0 -21.68575-28.06079l-53.29833 66.43944c-7.92386 9.87733-22.25488 11.44889-32.1322 3.52498-9.87729-7.92382-11.44888-22.2549-3.52503-32.13218l53.54476-66.7448a178.28614 178.28614 0 0 0 -95.37877-26.87685zm166.67715 244.75236a178.28614 178.28614 0 0 1 -6.08574 13.50002 241.95976 47.779703 37.191992 0 1 33.98582 67.43588 241.95976 47.779703 37.191992 0 1 -74.30373-14.67325 178.28614 178.28614 0 0 1 -13.55362 11.0036 274.28636 61.714429 37.191992 0 0 115.22171 25.94468 274.28636 61.714429 37.191992 0 0 -55.26444-103.21093zm-59.95727 77.26625a274.28636 61.714429 37.191992 0 1 -140.58246-90.69665 274.28636 61.714429 37.191992 0 1 -131.13247-117.43419 178.28614 178.28614 0 0 0 15.02147 158.82359 178.28614 178.28614 0 0 0 21.69649 28.07686l51.97513-66.68588c7.78386-9.98797 22.09067-11.76422 32.07864-3.98037 9.988 7.78387 11.76424 22.09067 3.98036 32.07867l-52.60729 67.50547a178.28614 178.28614 0 0 0 188.52904-.19827 178.28614 178.28614 0 0 0 11.04109-7.48931zm-271.71493-208.13084a178.28614 178.28614 0 0 1 6.59468-14.96791 241.95976 47.779703 37.191992 0 1 -32.523313-65.75906 241.95976 47.779703 37.191992 0 1 15.878643-4.80002 241.95976 47.779703 37.191992 0 1 56.00905 18.32683 178.28614 178.28614 0 0 1 10.45718-8.84466 274.28636 61.714429 37.191992 0 0 -83.030583-28.50008 274.28636 61.714429 37.191992 0 0 -23.44823 7.01254 274.28636 61.714429 37.191992 0 0 50.062573 97.53236zm45.95906-67.20016a178.28614 178.28614 0 0 0 -39.36438 52.23225 241.95976 47.779703 37.191992 0 0 131.34139 118.56992 241.95976 47.779703 37.191992 0 0 147.33248 93.52523 178.28614 178.28614 0 0 0 40.31791-52.76263 241.95976 47.779703 37.191992 0 0 -129.87882-116.89311 241.95976 47.779703 37.191992 0 0 -149.74858-94.67166z" fill="#646464" stroke-width="2.74287"/><g fill="#9d9d9d"><g stroke-width=".979592"><path d="m482.74746 495.00696c-7.68791-1.21087-20.4363-4.54399-29.73376-7.77402-24.04131-8.35223-60.11616-25.52036-53.62511-25.52036.41333 0 3.04082-2.00264 5.83886-4.45032l5.08735-4.45027 12.0387 5.31401c37.67796 16.6314 62.21114 18.26832 64.67954 4.31562 1.83295-10.36105-7.86535-29.28652-27.2921-53.25827l-8.15874-10.06757 2.7046-6.05679 2.70461-6.05683 7.34995 8.21227c35.36408 39.51307 53.34746 71.14547 49.70202 87.4247-1.04194 4.6529-4.78331 9.08372-9.30374 11.01834-4.11912 1.76284-15.09241 2.4362-21.99218 1.34949z"/><path d="m118.01389 246.02668c-28.103133-32.1853-45.581683-61.94075-45.581683-77.59819 0-5.98796 3.55989-12.28958 8.32655-14.73948 4.84021-2.4877 17.13277-3.21378 26.694133-1.57677 15.5419 2.66094 38.63928 10.74989 61.80728 21.64553l11.11342 5.22654-4.66986 4.05119-4.66981 4.05122-9.48936-4.17625c-28.7279-12.64312-50.61168-16.87484-59.65142-11.53493-11.582343 6.84185-2.645293 30.48586 23.3626 61.80857l5.86534 7.06393-3.14596 6.79195-3.14599 6.79192z"/><path d="m380.02477 453.30847c-63.99981-35.40018-135.6669-87.19257-198.36781-143.35646-17.26976-15.46923-55.34583-53.43409-55.34988-55.18819-.001-.66828 1.1588-3.95175 2.57858-7.29662l2.58139-6.08165 19.0323 19.50602c66.31716 67.9676 161.05429 139.50089 241.92405 182.66992l16.80688 8.97164-5.67005 4.58973c-3.11851 2.52436-6.27344 4.58846-7.01089 4.58695-.73748-.001-8.17354-3.78212-16.52457-8.40134z"/></g><path d="m62.570811 173.54094a240.00056 240.00056 0 0 0 -47.925082 143.89854 240.00056 240.00056 0 0 0 195.487951 235.83808v-29.13222a230.30308 233.76647 0 0 1 -181.500431-228.45588 230.30308 233.76647 0 0 1 33.937562-122.14852z" stroke-width="2.74287"/></g><g fill="#646464"><circle cx="218.9265" cy="543.54486" r="34.285797" stroke-width="2.74287"/><text font-family="HarmonyOS Sans SC" font-size="239.605" font-weight="bold" stroke-width="5.99013" transform="scale(1.0601293 .94328121)" x="542.33923" y="418.13013"><tspan fill="#646464" font-family="HarmonyOS Sans SC" font-weight="bold" stroke-width="5.99013" x="542.33923" y="418.13013">Planet</tspan></text><text font-family="sans-serif" font-size="73.021" stroke-width="1.82552" transform="scale(1.0184457 .98188838)" x="580.93414" y="526.25458"><tspan font-family="sans-serif" stroke-width="1.82552" x="580.93414" y="526.25458">Game engine</tspan></text></g></svg>